<svg width="60" height="60" viewBox="0 0 60 60" xmlns="http://www.w3.org/2000/svg">
    <title>Reddit_Color</title>
    <g fill="none" fill-rule="evenodd">
        <path d="M30 60c16.569 0 30-13.431 30-30C60 13.431 46.569 0 30 0 13.431 0 0 13.431 0 30c0 16.569 13.431 30 30 30z"
              fill="#FF5700"/>
        <g fill="#FFF">
            <path d="M52 29.61c0-2.744-2.242-4.977-4.998-4.977-1.26 0-2.411.471-3.291 1.241-3.132-2.003-7.272-3.306-11.857-3.534l2.41-7.587 6.579 1.542a4.137 4.137 0 0 0 4.136 3.987c2.285 0 4.143-1.85 4.143-4.124 0-2.275-1.859-4.125-4.143-4.125-1.66 0-3.09.978-3.751 2.383l-7.392-1.732a.962.962 0 0 0-1.137.645l-2.854 8.981c-4.881.095-9.31 1.408-12.629 3.498a4.988 4.988 0 0 0-3.218-1.175C11.242 24.633 9 26.866 9 29.61c0 1.747.91 3.283 2.282 4.17a8.73 8.73 0 0 0-.108 1.354c0 7.076 8.63 12.833 19.238 12.833 10.607 0 19.238-5.757 19.238-12.833 0-.423-.033-.842-.093-1.257A4.966 4.966 0 0 0 52 29.61zm-7.02-15.66c1.222 0 2.217.991 2.217 2.209a2.215 2.215 0 0 1-2.218 2.208 2.216 2.216 0 0 1-2.218-2.208c0-1.218.995-2.209 2.218-2.209zM10.924 29.61a3.07 3.07 0 0 1 4.64-2.627c-1.715 1.387-2.998 3.019-3.722 4.803a3.039 3.039 0 0 1-.918-2.177zm36.8 5.524c0 6.019-7.768 10.916-17.313 10.916-9.546 0-17.312-4.897-17.312-10.916a7.09 7.09 0 0 1 .463-2.501c.587-1.571 1.713-3.013 3.25-4.243a15.154 15.154 0 0 1 1.596-1.112c3.115-1.893 7.346-3.06 12.003-3.06 4.725 0 9.012 1.2 12.138 3.142.572.354 1.104.735 1.593 1.137 1.477 1.211 2.556 2.623 3.126 4.158a7.216 7.216 0 0 1 .455 2.48zM49.03 31.9c-.703-1.802-1.983-3.45-3.697-4.855a3.07 3.07 0 0 1 4.742 2.565 3.046 3.046 0 0 1-1.045 2.29z"/>
            <path d="M27.021 32.827c0-1.616-1.316-2.972-2.94-2.972-1.623 0-2.984 1.356-2.984 2.972 0 1.616 1.362 2.928 2.984 2.928a2.936 2.936 0 0 0 2.94-2.928zM36.963 29.854c-1.623 0-2.989 1.355-2.989 2.972 0 1.616 1.366 2.927 2.99 2.927a2.934 2.934 0 0 0 2.94-2.927c0-1.618-1.317-2.972-2.94-2.972zM36.133 39.922c-1.09 1.083-2.924 1.61-5.61 1.61l-.024.002c-.008 0-.015-.003-.023-.003-2.687 0-4.522-.526-5.61-1.609a.965.965 0 0 0-1.36 0 .954.954 0 0 0 0 1.355c1.466 1.46 3.746 2.171 6.97 2.171l.023-.002.023.002c3.224 0 5.505-.71 6.973-2.17a.954.954 0 0 0 0-1.355.968.968 0 0 0-1.362 0z"/>
        </g>
    </g>
</svg>